<?xml version="1.0" encoding="UTF-8" standalone="no"?>
<!DOCTYPE svg PUBLIC "-//W3C//DTD SVG 1.1//EN" "http://www.w3.org/Graphics/SVG/1.1/DTD/svg11.dtd">
<svg width="100%" height="100%" viewBox="0 0 1425 1425" version="1.1" xmlns="http://www.w3.org/2000/svg" xmlns:xlink="http://www.w3.org/1999/xlink" xml:space="preserve" xmlns:serif="http://www.serif.com/" style="fill-rule:evenodd;clip-rule:evenodd;stroke-linecap:round;stroke-linejoin:round;stroke-miterlimit:1.5;">
    <g transform="matrix(1,0,0,1,-3106.7,0)">
        <g id="Fly-agaric--Amanita-muscaria--" serif:id="Fly agaric (Amanita muscaria) " transform="matrix(1,0,0,1,3106.7,0)">
            <rect x="0" y="0" width="1425" height="1425" style="fill:none;"/>
            <g id="stem" transform="matrix(1.36286,0,0,1.36286,-199,-170.145)">
                <g id="morel-stem" serif:id="morel stem" transform="matrix(0.435771,0.0762516,-0.119199,1.49257,457.696,-600.593)">
                    <path d="M610.375,710.47C622.629,789.077 632.02,1003.88 559.601,1043.17C501.204,1074.86 875.012,1074.94 868.918,1038.99C861.287,993.964 773.709,693.545 749.028,689.363C694.604,680.141 604.987,675.904 610.375,710.47Z" style="fill:rgb(249,219,165);stroke:black;stroke-width:2.7px;"/>
                </g>
                <g id="morel-stem1" serif:id="morel stem" transform="matrix(1,0,0,1,-3100.14,0)">
                    <path d="M3781.99,889.996C3792.85,883.872 3804.06,871.973 3813.16,862.488C3812.43,705.522 3809.12,488.932 3802.07,483.35C3786.41,470.95 3763.12,460.829 3749.68,473.022C3757.2,475.974 3764.6,480.53 3770.8,485.443C3778.24,491.333 3781.52,732.152 3781.99,889.996Z" style="fill-opacity:0.44;"/>
                </g>
                <g transform="matrix(1,0,0,1,-3100.14,0)">
                    <path d="M3693.86,880.465C3686.15,910.227 3624.9,999.504 3647.58,1027.1C3670.26,1054.7 3800.87,1068.23 3829.92,1046.06C3858.98,1023.88 3821.94,926.973 3821.94,894.051C3821.94,878.645 3838.76,848.528 3829.92,848.528C3821.09,848.528 3791.63,894.051 3768.95,894.051C3746.28,894.051 3706.38,850.792 3693.86,848.528C3683.39,846.632 3696.53,870.16 3693.86,880.465Z" style="fill:rgb(246,246,245);stroke:black;stroke-width:3.06px;"/>
                </g>
                <g transform="matrix(1,0,0,1,-3131.41,0.000186151)">
                    <path d="M3824.63,879.744C3823.09,884.984 3821.94,890.021 3821.94,894.051C3821.94,926.973 3858.98,1023.88 3829.92,1046.06C3824.33,1050.33 3814.95,1053.28 3803.31,1055.05C3828.96,1055.03 3851.14,1051.63 3861.19,1043.96C3890.25,1021.79 3853.2,924.879 3853.2,891.958C3853.2,876.551 3870.02,846.434 3861.19,846.434C3855.36,846.434 3840.55,866.258 3824.63,879.744ZM3725.03,870.144C3740.08,881.904 3756.93,894.051 3768.95,894.051C3774.24,894.051 3779.9,891.573 3785.58,887.776C3763.24,876.872 3735.24,848.264 3725.13,846.434C3716.94,844.952 3723.19,859.013 3725.03,870.144Z" style="fill-opacity:0.44;"/>
                </g>
                <g transform="matrix(1,0,0,1,-3100.14,0)">
                    <path d="M3735.52,481.667C3737.6,507.988 3724.74,590.346 3709.51,602.791C3701.43,609.388 3727.62,585.419 3735.52,585.419C3743.42,585.419 3751.68,602.791 3756.9,602.791C3762.12,602.791 3762.28,586.311 3766.83,585.419C3771.38,584.527 3779.49,598.423 3784.19,597.439C3788.89,596.455 3788.12,578.684 3795.05,579.516C3802.49,580.407 3836.46,614.122 3828.81,602.791C3818.97,588.208 3802.29,504.606 3807.1,481.667C3812.34,456.73 3733.49,456.04 3735.52,481.667Z" style="fill:rgb(249,219,165);stroke:black;stroke-width:3.06px;"/>
                </g>
                <g transform="matrix(1,0,0,1,-3131.41,0.000186151)">
                    <path d="M3782.83,463.408C3797.44,465.385 3809.23,471.518 3807.1,481.667C3803.43,499.174 3812.28,552.016 3821.05,582.542C3822.18,579.451 3823.7,577.107 3826.32,577.422C3833.75,578.314 3867.72,612.028 3860.08,600.697C3850.24,586.114 3833.55,502.512 3838.37,479.574C3842.01,462.245 3805.04,456.624 3782.83,463.408ZM3746.32,593.063C3745.19,595.227 3744.05,597.063 3742.89,598.513C3739.39,601.496 3737.88,603.064 3740.77,600.697C3741.48,600.117 3742.19,599.385 3742.89,598.513C3744.22,597.371 3745.85,596.021 3747.64,594.605C3747.2,594.091 3746.76,593.574 3746.32,593.063ZM3783.21,597.446C3785.05,599.369 3786.72,600.697 3788.16,600.697C3793.38,600.697 3793.54,584.217 3798.09,583.325C3802.64,582.434 3810.75,596.329 3815.46,595.345C3815.83,595.267 3816.17,595.082 3816.48,594.809C3808.24,587.884 3798.61,579.942 3795.05,579.516C3788.12,578.684 3788.89,596.455 3784.19,597.439C3783.88,597.505 3783.55,597.504 3783.21,597.446Z" style="fill-opacity:0.44;"/>
                </g>
                <g id="shadows">
                </g>
            </g>
            <g id="head" transform="matrix(1.36286,0,0,1.36286,-199,-170.145)">
                <g id="head1" serif:id="head" transform="matrix(1.31736,0,0,1,-218.222,-14.7828)">
                    <g transform="matrix(1,0,0,0.95106,-1514.58,3.51575)">
                        <path d="M1935.09,533.328C1873.02,494.992 2005.84,341.647 2068.16,303.311C2130.48,264.974 2246.93,264.974 2308.99,303.311C2371.06,341.647 2502.88,494.992 2440.56,533.328C2378.24,571.665 1997.16,571.665 1935.09,533.328Z" style="fill:rgb(201,0,31);stroke:black;stroke-width:2.66px;"/>
                    </g>
                    <g transform="matrix(0.283938,0.0364083,-0.0126089,0.17065,-69.8177,362.548)">
                        <ellipse cx="2044.71" cy="463.953" rx="302.808" ry="59.468" style="fill:rgb(170,143,92);"/>
                    </g>
                </g>
                <g transform="matrix(1,0,0,1,-3100.14,0)">
                    <path d="M3747.14,250.312C3813.25,247.648 3882.26,256.611 3928.44,277.2C4010.2,313.66 4183.86,459.5 4101.76,495.96C4058.58,515.138 3899.21,524.229 3745.91,523.231C3884.01,522.333 4017.27,513.243 4056.18,495.96C4138.28,459.5 3964.62,313.66 3882.86,277.2C3847.27,261.329 3798.1,252.366 3747.14,250.312Z" style="fill-opacity:0.44;"/>
                </g>
                <g id="spots">
                    <g transform="matrix(1,0,0,1,-3100.14,0)">
                        <path d="M3673.84,330.894C3667.72,335.27 3651.8,363.325 3654.73,369.811C3657.67,376.297 3685.35,374.187 3691.47,369.811C3697.59,365.435 3694.41,350.043 3691.47,343.557C3688.53,337.07 3679.73,326.687 3673.84,330.894Z" style="fill:rgb(246,246,245);stroke:black;stroke-width:3.06px;"/>
                    </g>
                    <g transform="matrix(0.874456,0,0,0.732451,-2641.66,-1.16546)">
                        <path d="M3673.84,330.894C3667.72,335.27 3651.8,363.325 3654.73,369.811C3657.67,376.297 3685.35,374.187 3691.47,369.811C3697.59,365.435 3694.41,350.043 3691.47,343.557C3688.53,337.07 3679.73,326.687 3673.84,330.894Z" style="fill:rgb(246,246,245);stroke:black;stroke-width:3.79px;"/>
                    </g>
                    <g transform="matrix(1.2908,0,0,0.766326,-4048.26,-14.6905)">
                        <path d="M3673.84,330.894C3667.72,335.27 3651.8,363.325 3654.73,369.811C3657.67,376.297 3685.35,374.187 3691.47,369.811C3697.59,365.435 3694.41,350.043 3691.47,343.557C3688.53,337.07 3679.73,326.687 3673.84,330.894Z" style="fill:rgb(246,246,245);stroke:black;stroke-width:2.88px;"/>
                    </g>
                    <g transform="matrix(1.04466,0,0,0.766326,-3350.96,133.754)">
                        <path d="M3673.84,330.894C3667.72,335.27 3651.8,363.325 3654.73,369.811C3657.67,376.297 3685.35,374.187 3691.47,369.811C3697.59,365.435 3694.41,350.043 3691.47,343.557C3688.53,337.07 3679.73,326.687 3673.84,330.894Z" style="fill:rgb(246,246,245);stroke:black;stroke-width:3.34px;"/>
                    </g>
                    <g transform="matrix(1.04466,0,0,0.766326,-3413.86,116.894)">
                        <path d="M3673.84,330.894C3667.72,335.27 3651.8,363.325 3654.73,369.811C3657.67,376.297 3685.35,374.187 3691.47,369.811C3697.59,365.435 3694.41,350.043 3691.47,343.557C3688.53,337.07 3679.73,326.687 3673.84,330.894Z" style="fill:rgb(246,246,245);stroke:black;stroke-width:3.34px;"/>
                    </g>
                    <g transform="matrix(1.50213,0,0,0.582035,-4677.52,90.0593)">
                        <path d="M3673.84,330.894C3667.72,335.27 3651.8,363.325 3654.73,369.811C3657.67,376.297 3685.35,374.187 3691.47,369.811C3697.59,365.435 3694.41,350.043 3691.47,343.557C3688.53,337.07 3679.73,326.687 3673.84,330.894Z" style="fill:rgb(246,246,245);stroke:black;stroke-width:2.68px;"/>
                    </g>
                    <g transform="matrix(1.2908,0,0,0.383163,-3957.64,251.737)">
                        <path d="M3673.84,330.894C3646.12,289.126 3646.27,345.18 3654.73,369.811C3656.07,373.703 3682.76,370.701 3691.47,369.811C3697.4,369.205 3693.93,357.353 3691.47,351.921C3688.53,345.435 3677.61,336.568 3673.84,330.894Z" style="fill:rgb(246,246,245);stroke:black;stroke-width:3.21px;"/>
                    </g>
                    <g transform="matrix(0.969623,0,0,0.383163,-2913.69,184.566)">
                        <path d="M3673.84,330.894C3646.12,289.126 3646.27,345.18 3654.73,369.811C3656.07,373.703 3682.76,370.701 3691.47,369.811C3697.4,369.205 3693.93,357.353 3691.47,351.921C3688.53,345.435 3677.61,336.568 3673.84,330.894Z" style="fill:rgb(246,246,245);stroke:black;stroke-width:4.15px;"/>
                    </g>
                    <g transform="matrix(0.935642,-0.254447,0.100549,0.369735,-2757.97,1168.01)">
                        <path d="M3673.84,330.894C3646.12,289.126 3646.27,345.18 3654.73,369.811C3656.07,373.703 3682.76,370.701 3691.47,369.811C3697.4,369.205 3694.41,337.38 3691.47,330.894C3689.04,325.542 3677.61,336.568 3673.84,330.894Z" style="fill:rgb(246,246,245);stroke:black;stroke-width:4.15px;"/>
                    </g>
                    <g transform="matrix(-1.0663,0.727444,-0.276077,-0.404678,4507.83,-2209.65)">
                        <path d="M3673.84,330.894C3646.12,289.126 3646.27,345.18 3654.73,369.811C3656.07,373.703 3682.76,370.701 3691.47,369.811C3697.4,369.205 3693.93,357.353 3691.47,351.921C3688.53,345.435 3677.61,336.568 3673.84,330.894Z" style="fill:rgb(246,246,245);stroke:black;stroke-width:3.13px;"/>
                    </g>
                    <g transform="matrix(0.320078,-0.825293,0.528383,0.204926,-438.631,3356.51)">
                        <path d="M3673.84,330.894C3667.72,335.27 3651.8,363.325 3654.73,369.811C3657.67,376.297 3685.35,374.187 3691.47,369.811C3697.59,365.435 3694.41,350.043 3691.47,343.557C3688.53,337.07 3679.73,326.687 3673.84,330.894Z" style="fill:rgb(246,246,245);stroke:black;stroke-width:4.11px;"/>
                    </g>
                    <g transform="matrix(0.320078,-0.825293,0.528383,0.204926,-601.133,3274.8)">
                        <path d="M3673.84,330.894C3667.72,335.27 3651.8,363.325 3654.73,369.811C3657.67,376.297 3685.35,374.187 3691.47,369.811C3697.59,365.435 3694.41,350.043 3691.47,343.557C3688.53,337.07 3679.73,326.687 3673.84,330.894Z" style="fill:rgb(246,246,245);stroke:black;stroke-width:4.11px;"/>
                    </g>
                    <g transform="matrix(0.320078,-0.825293,0.528383,0.204926,-716.863,3363.18)">
                        <path d="M3673.84,330.894C3667.72,335.27 3651.8,363.325 3654.73,369.811C3657.67,376.297 3685.35,374.187 3691.47,369.811C3697.59,365.435 3694.41,350.043 3691.47,343.557C3688.53,337.07 3679.73,326.687 3673.84,330.894Z" style="fill:rgb(246,246,245);stroke:black;stroke-width:4.11px;"/>
                    </g>
                </g>
                <g transform="matrix(1,0,0,1,-21.8175,0.000125172)">
                    <g id="head2" serif:id="head">
                        <g id="spots1" serif:id="spots">
                            <g transform="matrix(1,0,0,1,-3078.32,0)">
                                <path d="M3667.07,339.075C3668.14,340.627 3669.03,342.18 3669.65,343.557C3672.59,350.043 3675.77,365.435 3669.65,369.811C3667.85,371.099 3664.18,372.19 3659.82,372.924C3668.87,375.251 3686.7,373.218 3691.47,369.811C3697.59,365.435 3694.41,350.043 3691.47,343.557C3688.53,337.07 3679.73,326.687 3673.84,330.894C3672.14,332.112 3669.67,335.164 3667.07,339.075Z" style="fill-opacity:0.44;"/>
                            </g>
                            <g transform="matrix(1,0,0,1,-3078.32,0)">
                                <path d="M3663.78,248.993C3664.12,249.505 3664.43,250.003 3664.68,250.473C3667.25,255.224 3670.04,266.498 3664.68,269.703C3663.35,270.504 3660.83,271.201 3657.77,271.723C3665.26,273.825 3682.14,272.315 3686.5,269.703C3691.85,266.498 3689.07,255.224 3686.5,250.473C3683.93,245.722 3676.23,238.117 3671.09,241.198C3669.3,242.27 3666.55,245.281 3663.78,248.993Z" style="fill-opacity:0.44;"/>
                            </g>
                            <g transform="matrix(1,0,0,1,-3078.32,0)">
                                <path d="M3788.34,242.61C3791.21,244.538 3793.62,246.763 3795.01,248.586C3798.8,253.556 3802.91,265.352 3795.01,268.705C3792.18,269.905 3785.8,270.883 3778.58,271.416C3790.79,272.652 3811.11,271.134 3816.83,268.705C3824.73,265.352 3820.62,253.556 3816.83,248.586C3813.04,243.615 3801.67,235.659 3794.08,238.882C3792.55,239.531 3790.55,240.857 3788.34,242.61Z" style="fill-opacity:0.44;"/>
                            </g>
                            <g transform="matrix(1,0,0,1,-3078.32,0)">
                                <path d="M3580.48,393.077C3581.82,394.436 3582.93,395.821 3583.67,397.03C3586.74,402.001 3590.07,413.797 3583.67,417.15C3581.71,418.179 3577.63,419.045 3572.82,419.606C3582.39,421.277 3600.58,419.725 3605.49,417.15C3611.89,413.797 3608.56,402.001 3605.49,397.03C3602.42,392.06 3593.22,384.103 3587.08,387.327C3585.4,388.206 3583.02,390.331 3580.48,393.077Z" style="fill-opacity:0.44;"/>
                            </g>
                            <g transform="matrix(1,0,0,1,-3078.32,0)">
                                <path d="M3517.58,376.217C3518.92,377.576 3520.02,378.961 3520.77,380.17C3523.84,385.141 3527.17,396.937 3520.77,400.29C3518.81,401.319 3514.72,402.184 3509.92,402.746C3519.49,404.416 3537.68,402.865 3542.59,400.29C3548.98,396.937 3545.66,385.141 3542.59,380.17C3539.52,375.2 3530.32,367.243 3524.17,370.467C3522.5,371.346 3520.12,373.471 3517.58,376.217Z" style="fill-opacity:0.44;"/>
                            </g>
                            <g transform="matrix(1,0,0,1,-3078.32,0)">
                                <path d="M3936.14,284.675C3940.33,286.292 3943.93,288.373 3945.86,290.021C3950.27,293.796 3955.06,302.755 3945.86,305.302C3942.3,306.287 3933.91,307.075 3924.69,307.452C3939.01,308.218 3961.25,307.082 3967.68,305.302C3976.87,302.755 3972.09,293.796 3967.68,290.021C3963.26,286.246 3950.04,280.203 3941.2,282.651C3939.8,283.038 3938.06,283.744 3936.14,284.675Z" style="fill-opacity:0.44;"/>
                            </g>
                            <g transform="matrix(1,0,0,1,-3078.32,0)">
                                <path d="M3855.54,375.574C3857.8,376.368 3860.24,377.344 3862.88,378.523C3867.74,380.697 3881.84,384.095 3885.63,386.58C3888.81,388.661 3893.29,393.203 3885.63,393.435C3881.06,393.574 3872.64,393.847 3864.14,394.021C3873.96,394.52 3898.33,393.711 3907.45,393.435C3915.11,393.203 3910.62,388.661 3907.45,386.58C3903.66,384.095 3889.55,380.697 3884.69,378.523C3868,371.054 3859.13,371.749 3855.54,375.574Z" style="fill-opacity:0.44;"/>
                            </g>
                            <g transform="matrix(1,0,0,1,-3078.32,0)">
                                <path d="M3725.72,310.681C3726.1,310.896 3726.48,311.121 3726.87,311.353C3730.52,313.527 3741.11,316.924 3743.96,319.409C3746.35,321.491 3749.71,326.032 3743.96,326.264C3741.26,326.373 3736.78,326.565 3731.88,326.727C3738.03,327.464 3758.46,326.56 3765.78,326.264C3771.53,326.032 3768.16,321.491 3765.78,319.409C3762.93,316.924 3752.34,313.527 3748.69,311.353C3733.94,302.571 3727.33,305.075 3725.72,310.681Z" style="fill-opacity:0.44;"/>
                            </g>
                            <g transform="matrix(1,0,0,1,-3078.32,0)">
                                <path d="M3811.25,355.135C3813.64,359.014 3815.09,364.305 3811.43,365.463C3807.88,366.585 3801.09,368.749 3794.47,370.724C3795.75,372.311 3797.26,373.727 3798.88,374.809C3800.52,375.908 3825.19,368.007 3833.25,365.463C3838.74,363.729 3832.73,352.724 3829.33,351.074C3826.53,349.712 3816.93,356.699 3812.84,355.559C3812.3,355.408 3811.77,355.266 3811.25,355.135ZM3798.73,353.68C3796.72,354.549 3794.71,355.349 3793.05,355.602C3794.36,354.605 3796.22,353.918 3798.73,353.68Z" style="fill-opacity:0.44;"/>
                            </g>
                            <g transform="matrix(1,0,0,1,-3078.32,0)">
                                <path d="M3598.27,305.366C3607.13,313.499 3607.86,326.54 3577.38,328.959C3575.17,329.134 3571.61,329.927 3567.82,330.788C3569.13,332.242 3572.31,333.045 3574.6,333.273C3579.52,333.76 3593.62,329.402 3599.2,328.959C3640.29,325.697 3624.66,303.121 3608.83,299.312C3607.92,299.093 3603.7,301.672 3598.27,305.366Z" style="fill-opacity:0.44;"/>
                            </g>
                            <g transform="matrix(1,0,0,1,-3078.32,0)">
                                <path d="M4016.5,384.749C4016.58,385.063 4016.63,385.396 4016.65,385.748C4016.79,388.102 4015.66,393.168 4013.98,398.498C4017.04,406.289 4023.41,416.892 4026.71,416.063C4031.08,414.968 4038.82,391.697 4038.47,385.748C4038.12,379.798 4028.96,379.272 4024.6,380.367C4022.36,380.927 4019.11,382.541 4016.5,384.749Z" style="fill-opacity:0.44;"/>
                            </g>
                            <g transform="matrix(1,0,0,1,-3078.32,0)">
                                <path d="M3854,303.045C3854.08,303.359 3854.13,303.692 3854.15,304.044C3854.29,306.398 3853.16,311.464 3851.47,316.794C3854.54,324.585 3860.91,335.187 3864.21,334.359C3868.58,333.264 3876.32,309.993 3875.97,304.044C3875.61,298.094 3866.46,297.568 3862.09,298.663C3859.86,299.223 3856.6,300.837 3854,303.045Z" style="fill-opacity:0.44;"/>
                            </g>
                            <g transform="matrix(1,0,0,1,-3078.32,0)">
                                <path d="M3738.27,391.42C3738.35,391.735 3738.4,392.067 3738.42,392.419C3738.56,394.773 3737.43,399.839 3735.74,405.169C3738.81,412.961 3745.18,423.563 3748.48,422.734C3752.85,421.639 3760.59,398.368 3760.24,392.419C3759.88,386.47 3750.73,385.943 3746.36,387.039C3744.13,387.598 3740.88,389.213 3738.27,391.42Z" style="fill-opacity:0.44;"/>
                            </g>
                        </g>
                    </g>
                </g>
            </g>
        </g>
    </g>
</svg>
